<svg width="138" height="36" viewBox="0 0 138 36" fill="none" xmlns="http://www.w3.org/2000/svg">
<rect x="0.564802" y="1.42857" width="33.1429" height="33.1429" rx="7.35289" fill="#092F42"/>
<rect x="0.564802" y="1.42857" width="33.1429" height="33.1429" rx="7.35289" stroke="white" stroke-width="1.14286"/>
<path d="M20.0272 11.233C19.7378 11.233 19.5031 10.9983 19.5031 10.7089C19.5031 10.4194 19.7378 10.1848 20.0272 10.1848C20.3167 10.1848 20.5513 10.4194 20.5513 10.7089C20.5513 10.9983 20.3167 11.233 20.0272 11.233ZM14.2569 11.233C13.9674 11.233 13.7328 10.9983 13.7328 10.7089C13.7328 10.4194 13.9674 10.1848 14.2569 10.1848C14.5463 10.1848 14.7809 10.4194 14.7809 10.7089C14.7809 10.9983 14.5463 11.233 14.2569 11.233ZM20.2128 8.08848L21.261 6.28149C21.2995 6.21417 21.299 6.1314 21.2597 6.06454C21.2204 5.99768 21.1484 5.95695 21.0708 5.95778C20.9933 5.95862 20.9221 6.00089 20.8843 6.06858L19.8252 7.8974C18.9841 7.51302 18.0696 7.3156 17.1448 7.31873C16.2189 7.31646 15.3031 7.51189 14.4588 7.89195L13.3998 6.06312C13.3407 5.95974 13.2091 5.92355 13.1055 5.98214C13.0018 6.04073 12.965 6.17208 13.0231 6.27603L14.0658 8.08302C12.2342 9.08196 11.0308 10.9383 10.8667 13.0181H23.4064C23.2473 10.9395 22.0449 9.08336 20.2128 8.08848Z" fill="#3DDC84"/>
<path d="M6.16977 16.2527C6.70065 16.2527 7.14161 16.5267 7.35139 16.8221V16.3255H8.16054V20.0117H7.5783C7.51691 20.0119 7.45796 19.9876 7.41455 19.9442C7.37114 19.9008 7.34686 19.8419 7.34711 19.7805V19.515C7.14161 19.8147 6.70065 20.0887 6.16977 20.0887C5.15941 20.0887 4.39307 19.2239 4.39307 18.1707C4.39307 17.1175 5.15941 16.2527 6.16977 16.2527ZM6.31534 16.9891C5.66031 16.9891 5.21506 17.5071 5.21506 18.1707C5.21506 18.8343 5.65603 19.3523 6.31534 19.3523C6.97036 19.3523 7.41561 18.8343 7.41561 18.1707C7.41561 17.5071 6.97464 16.9891 6.31534 16.9891ZM9.081 16.3255H9.89444V16.8264C10.1171 16.4582 10.5366 16.2527 11.0161 16.2527C11.8724 16.2527 12.4246 16.8564 12.4246 17.794V20.0117H11.8424C11.781 20.0119 11.7221 19.9876 11.6786 19.9442C11.6352 19.9008 11.611 19.8419 11.6112 19.7805V17.9267C11.6112 17.3445 11.3158 16.9891 10.8449 16.9891C10.3054 16.9891 9.89444 17.4087 9.89444 18.1964V20.0117H9.31219C9.2508 20.0119 9.19185 19.9876 9.14844 19.9442C9.10503 19.9008 9.08075 19.8419 9.081 19.7805V16.3255ZM14.8435 16.2527C15.3744 16.2527 15.8154 16.5267 16.0252 16.8221V14.4846H16.8343V20.0159H16.2521C16.1907 20.0162 16.1317 19.9919 16.0883 19.9485C16.0449 19.9051 16.0206 19.8461 16.0209 19.7847V19.5193C15.8154 19.8147 15.3701 20.0887 14.8393 20.0887C13.8289 20.0887 13.0625 19.2239 13.0625 18.1707C13.0668 17.1175 13.8332 16.2527 14.8435 16.2527ZM14.9891 16.9891C14.3341 16.9891 13.8888 17.5071 13.8888 18.1707C13.8888 18.8343 14.3298 19.3523 14.9891 19.3523C15.6441 19.3523 16.0894 18.8343 16.0894 18.1707C16.0894 17.5071 15.6441 16.9891 14.9891 16.9891ZM17.7548 16.3255H18.5639V16.9805C18.7093 16.5677 19.098 16.2903 19.5358 16.287C19.6421 16.2867 19.7482 16.2968 19.8526 16.317V17.1518C19.7215 17.1076 19.5842 17.0845 19.4458 17.0833C18.9792 17.0833 18.5596 17.4729 18.5596 18.2135V20.0117H17.9774C17.916 20.0119 17.857 19.9876 17.8136 19.9442C17.7702 19.9008 17.746 19.8419 17.7462 19.7805V16.3255H17.7548ZM22.0445 20.0887C20.9528 20.0887 20.1137 19.241 20.1137 18.1707C20.1137 17.1004 20.9528 16.2527 22.0445 16.2527C23.1363 16.2527 23.9754 17.1004 23.9754 18.1707C23.9754 19.241 23.1363 20.0887 22.0445 20.0887ZM22.0445 19.3352C22.6953 19.3352 23.1491 18.8258 23.1491 18.1707C23.1491 17.5157 22.691 17.0062 22.0445 17.0062C21.3895 17.0062 20.9314 17.5157 20.9314 18.1707C20.9314 18.8258 21.3895 19.3352 22.0445 19.3352ZM25.0371 15.5206C24.7376 15.5187 24.4953 15.2764 24.4934 14.9769C24.4987 14.6796 24.7397 14.4404 25.0371 14.4375C25.3362 14.4375 25.5787 14.68 25.5787 14.9791C25.5787 15.2782 25.3362 15.5206 25.0371 15.5206ZM24.6347 16.3255H25.4438V20.0117H24.8659C24.8045 20.0119 24.7455 19.9876 24.7021 19.9442C24.6587 19.9008 24.6344 19.8419 24.6347 19.7805V16.3255ZM27.8884 16.2527C28.4193 16.2527 28.8603 16.5267 29.07 16.8221V14.4846H29.8792V20.0159H29.2969C29.2356 20.0162 29.1766 19.9919 29.1332 19.9485C29.0898 19.9051 29.0655 19.8461 29.0658 19.7847V19.5193C28.8603 19.8147 28.415 20.0887 27.8841 20.0887C26.8738 20.0887 26.1074 19.2239 26.1074 18.1707C26.1117 17.1175 26.8781 16.2527 27.8884 16.2527ZM28.0383 16.9891C27.3832 16.9891 26.938 17.5071 26.938 18.1707C26.938 18.8343 27.379 19.3523 28.0383 19.3523C28.6933 19.3523 29.1385 18.8343 29.1385 18.1707C29.1385 17.5071 28.6933 16.9891 28.0383 16.9891Z" fill="white"/>
<path d="M8.49339 28.3975L11.1079 21.9558H12.311L14.9255 28.3975H13.4004L12.9362 27.0997H10.4827L10.0185 28.3975H8.49339ZM10.8901 25.9345H12.5194L11.7047 23.642L10.8901 25.9345ZM15.6403 28.3975V21.9558H18.3117C18.659 21.9558 18.9811 22.0442 19.2779 22.2211C19.5811 22.3916 19.8242 22.6316 20.0074 22.941C20.1905 23.2505 20.2821 23.6104 20.2821 24.0209C20.2821 24.4567 20.1905 24.8293 20.0074 25.1388C19.8242 25.4482 19.5811 25.685 19.2779 25.8492C18.9811 26.0134 18.659 26.0955 18.3117 26.0955H17.0613V28.3975H15.6403ZM17.0613 24.9777H18.0086C18.1475 24.9777 18.2801 24.943 18.4064 24.8735C18.539 24.7977 18.6464 24.6872 18.7285 24.542C18.8169 24.3967 18.8611 24.223 18.8611 24.0209C18.8611 23.8252 18.8169 23.6578 18.7285 23.5189C18.6464 23.3736 18.539 23.2631 18.4064 23.1873C18.2801 23.1115 18.1475 23.0736 18.0086 23.0736H17.0613V24.9777ZM21.1839 28.3975V21.9558H22.6048V24.8356L24.6415 21.9558H26.4603L23.9879 25.1766L26.555 28.3975H24.6415L22.6048 25.5177V28.3975H21.1839Z" fill="white"/>
<rect x="42.2633" y="2.4" width="95.2" height="31.2" rx="4.4" fill="black"/>
<rect x="42.2633" y="2.4" width="95.2" height="31.2" rx="4.4" stroke="#A6A6A6" stroke-width="0.8"/>
<path d="M56.1071 17.569L48.335 26.0043C48.3357 26.0058 48.3357 26.0081 48.3364 26.0096C48.5751 26.9255 49.3927 27.5996 50.3636 27.5996C50.7519 27.5996 51.1162 27.4921 51.4286 27.304L51.4535 27.2891L60.2016 22.1271L56.1071 17.569Z" fill="#EA4335"/>
<path d="M63.9695 16.1343L63.9622 16.1291L60.1853 13.8904L55.9302 17.7624L60.2006 22.1279L63.9571 19.9116C64.6156 19.5473 65.063 18.8374 65.063 18.0192C65.063 17.2055 64.6221 16.4994 63.9695 16.1343Z" fill="#FBBC04"/>
<path d="M48.3352 9.99479C48.2885 10.171 48.2637 10.3561 48.2637 10.5472V25.4532C48.2637 25.6443 48.2885 25.8295 48.3359 26.0049L56.3746 17.7852L48.3352 9.99479Z" fill="#4285F4"/>
<path d="M56.1643 18L60.1865 13.8876L51.4486 8.70688C51.1311 8.51204 50.7602 8.40007 50.3638 8.40007C49.393 8.40007 48.5739 9.07565 48.3352 9.99234C48.3352 9.99309 48.3345 9.99384 48.3345 9.99458L56.1643 18Z" fill="#34A853"/>
<path d="M75.3454 11.2002C75.2829 11.0089 75.2005 10.8375 75.0982 10.686C74.9979 10.5326 74.8776 10.4019 74.7374 10.2939C74.5992 10.186 74.442 10.1036 74.2658 10.0468C74.0897 9.98997 73.8965 9.96156 73.6863 9.96156C73.3416 9.96156 73.0282 10.0506 72.746 10.2286C72.4638 10.4066 72.2393 10.6689 72.0727 11.0155C71.906 11.3621 71.8227 11.7873 71.8227 12.2911C71.8227 12.7949 71.9069 13.2201 72.0755 13.5667C72.2441 13.9133 72.4723 14.1756 72.7602 14.3536C73.048 14.5316 73.3719 14.6206 73.7318 14.6206C74.0651 14.6206 74.3586 14.5496 74.6124 14.4076C74.8681 14.2636 75.067 14.061 75.209 13.7996C75.353 13.5364 75.4249 13.2267 75.4249 12.8707L75.6408 12.9161H73.8908V12.2911H76.1068V12.9161C76.1068 13.3953 76.0045 13.8119 75.7999 14.1661C75.5973 14.5203 75.317 14.7949 74.959 14.99C74.603 15.1831 74.1939 15.2797 73.7318 15.2797C73.2166 15.2797 72.764 15.1585 72.3738 14.9161C71.9855 14.6737 71.6825 14.329 71.4647 13.882C71.2488 13.435 71.1408 12.9047 71.1408 12.2911C71.1408 11.8309 71.2024 11.4171 71.3255 11.0496C71.4505 10.6803 71.6266 10.3659 71.8539 10.1064C72.0812 9.84698 72.3501 9.64811 72.6607 9.50985C72.9713 9.3716 73.3132 9.30247 73.6863 9.30247C73.9931 9.30247 74.2791 9.34887 74.5443 9.44167C74.8113 9.53258 75.049 9.66232 75.2573 9.83088C75.4676 9.99754 75.6427 10.1974 75.7829 10.4303C75.923 10.6614 76.0196 10.918 76.0727 11.2002H75.3454ZM77.3134 15.2002V9.38201H80.8248V10.007H78.018V11.9729H80.643V12.5979H78.018V14.5752H80.8702V15.2002H77.3134ZM81.7765 10.007V9.38201H86.1401V10.007H84.3106V15.2002H83.606V10.007H81.7765ZM90.182 9.38201V15.2002H89.4775V9.38201H90.182ZM91.2765 10.007V9.38201H95.6401V10.007H93.8106V15.2002H93.106V10.007H91.2765ZM103.887 12.2911C103.887 12.9047 103.776 13.435 103.554 13.882C103.333 14.329 103.029 14.6737 102.642 14.9161C102.256 15.1585 101.815 15.2797 101.318 15.2797C100.822 15.2797 100.381 15.1585 99.9945 14.9161C99.6082 14.6737 99.3042 14.329 99.0826 13.882C98.861 13.435 98.7502 12.9047 98.7502 12.2911C98.7502 11.6775 98.861 11.1472 99.0826 10.7002C99.3042 10.2532 99.6082 9.90853 99.9945 9.6661C100.381 9.42368 100.822 9.30247 101.318 9.30247C101.815 9.30247 102.256 9.42368 102.642 9.6661C103.029 9.90853 103.333 10.2532 103.554 10.7002C103.776 11.1472 103.887 11.6775 103.887 12.2911ZM103.205 12.2911C103.205 11.7873 103.12 11.3621 102.952 11.0155C102.785 10.6689 102.559 10.4066 102.273 10.2286C101.989 10.0506 101.671 9.96156 101.318 9.96156C100.966 9.96156 100.647 10.0506 100.361 10.2286C100.077 10.4066 99.8506 10.6689 99.682 11.0155C99.5154 11.3621 99.432 11.7873 99.432 12.2911C99.432 12.7949 99.5154 13.2201 99.682 13.5667C99.8506 13.9133 100.077 14.1756 100.361 14.3536C100.647 14.5316 100.966 14.6206 101.318 14.6206C101.671 14.6206 101.989 14.5316 102.273 14.3536C102.559 14.1756 102.785 13.9133 102.952 13.5667C103.12 13.2201 103.205 12.7949 103.205 12.2911ZM109.685 9.38201V15.2002H109.003L105.833 10.632H105.776V15.2002H105.071V9.38201H105.753L108.935 13.9616H108.992V9.38201H109.685Z" fill="white"/>
<path d="M116.678 26.7283H117.981V17.9191H116.678V26.7283ZM128.415 21.0923L126.921 24.9116H126.876L125.326 21.0923H123.922L126.247 26.4302L124.922 29.3998H126.281L129.864 21.0923H128.415ZM121.025 25.7277C120.598 25.7277 120.003 25.5127 120.003 24.9793C120.003 24.3 120.744 24.0392 121.384 24.0392C121.957 24.0392 122.227 24.164 122.575 24.3338C122.473 25.1498 121.777 25.7277 121.025 25.7277ZM121.182 20.8999C120.239 20.8999 119.261 21.3192 118.858 22.2487L120.014 22.7356C120.261 22.2487 120.721 22.0894 121.205 22.0894C121.878 22.0894 122.563 22.4974 122.575 23.2232V23.3134C122.339 23.1774 121.834 22.9738 121.216 22.9738C119.969 22.9738 118.7 23.6651 118.7 24.9567C118.7 26.1357 119.722 26.8953 120.867 26.8953C121.744 26.8953 122.227 26.4986 122.53 26.0335H122.575V26.7135H123.832V23.336C123.832 21.7723 122.676 20.8999 121.182 20.8999ZM113.129 22.1648H111.276V19.1452H113.129C114.103 19.1452 114.656 19.9592 114.656 20.6547C114.656 21.3375 114.103 22.1648 113.129 22.1648ZM113.096 17.9191H109.974V26.7283H111.276V23.3909H113.096C114.54 23.3909 115.96 22.3353 115.96 20.6547C115.96 18.974 114.54 17.9191 113.096 17.9191ZM96.0702 25.7291C95.1701 25.7291 94.4166 24.9687 94.4166 23.9244C94.4166 22.8688 95.1701 22.0964 96.0702 22.0964C96.9592 22.0964 97.6561 22.8688 97.6561 23.9244C97.6561 24.9687 96.9592 25.7291 96.0702 25.7291ZM97.5667 21.5856H97.5213C97.2287 21.2339 96.6666 20.9161 95.9578 20.9161C94.4725 20.9161 93.1115 22.2324 93.1115 23.9244C93.1115 25.6043 94.4725 26.9101 95.9578 26.9101C96.6666 26.9101 97.2287 26.5923 97.5213 26.2287H97.5667V26.6607C97.5667 27.8072 96.9592 28.4202 95.9801 28.4202C95.1813 28.4202 94.6862 27.841 94.4837 27.3527L93.3475 27.8297C93.6736 28.6246 94.5402 29.6006 95.9801 29.6006C97.5101 29.6006 98.8041 28.6923 98.8041 26.4789V21.0972H97.5667V21.5856ZM99.7042 26.7283H101.009V17.9184H99.7042V26.7283ZM102.933 23.8222C102.899 22.6644 103.821 22.0739 104.485 22.0739C105.003 22.0739 105.442 22.3346 105.588 22.7095L102.933 23.8222ZM106.983 22.823C106.736 22.1535 105.981 20.9161 104.44 20.9161C102.91 20.9161 101.639 22.1303 101.639 23.9131C101.639 25.5931 102.899 26.9101 104.586 26.9101C105.948 26.9101 106.736 26.0701 107.062 25.5818L106.049 24.9004C105.712 25.4 105.25 25.7291 104.586 25.7291C103.923 25.7291 103.45 25.4225 103.146 24.8214L107.118 23.1633L106.983 22.823ZM75.3437 21.8357V23.107H78.3583C78.2682 23.8222 78.0322 24.3444 77.6725 24.7073C77.2333 25.1505 76.5468 25.6389 75.3437 25.6389C73.4868 25.6389 72.0358 24.1287 72.0358 22.2557C72.0358 20.382 73.4868 18.8725 75.3437 18.8725C76.345 18.8725 77.0762 19.27 77.616 19.7809L78.5049 18.8838C77.7507 18.1573 76.7501 17.6006 75.3437 17.6006C72.8011 17.6006 70.6636 19.69 70.6636 22.2557C70.6636 24.8214 72.8011 26.9101 75.3437 26.9101C76.7158 26.9101 77.7507 26.4556 78.5608 25.6043C79.3939 24.7644 79.6522 23.584 79.6522 22.6299C79.6522 22.3346 79.6299 22.0626 79.5845 21.8357H75.3437ZM83.0802 25.7291C82.1801 25.7291 81.4036 24.98 81.4036 23.9131C81.4036 22.8342 82.1801 22.0964 83.0802 22.0964C83.9797 22.0964 84.7562 22.8342 84.7562 23.9131C84.7562 24.98 83.9797 25.7291 83.0802 25.7291ZM83.0802 20.9161C81.4371 20.9161 80.0985 22.1761 80.0985 23.9131C80.0985 25.6389 81.4371 26.9101 83.0802 26.9101C84.7227 26.9101 86.0613 25.6389 86.0613 23.9131C86.0613 22.1761 84.7227 20.9161 83.0802 20.9161ZM89.5836 25.7291C88.6835 25.7291 87.907 24.98 87.907 23.9131C87.907 22.8342 88.6835 22.0964 89.5836 22.0964C90.4837 22.0964 91.2596 22.8342 91.2596 23.9131C91.2596 24.98 90.4837 25.7291 89.5836 25.7291ZM89.5836 20.9161C87.9412 20.9161 86.6025 22.1761 86.6025 23.9131C86.6025 25.6389 87.9412 26.9101 89.5836 26.9101C91.226 26.9101 92.5647 25.6389 92.5647 23.9131C92.5647 22.1761 91.226 20.9161 89.5836 20.9161Z" fill="white"/>
</svg>
