<svg width="329" height="79" viewBox="0 0 329 79" fill="none" xmlns="http://www.w3.org/2000/svg">
<mask id="path-1-outside-1_7_696" maskUnits="userSpaceOnUse" x="2" y="33.21" width="325" height="47" fill="black">
<rect fill="white" x="2" y="33.21" width="325" height="47"/>
<path d="M3.40962 78.21V34.3477H14.0111V69.6003H32.2585V78.21H3.40962ZM46.0141 78.21H34.6201L49.4194 34.3477H63.5333L78.3325 78.21H66.9386L56.637 45.3989H56.2943L46.0141 78.21ZM44.4934 60.9478H68.3093V69.0006H44.4934V60.9478ZM107.781 34.3477H118.362V62.6397C118.362 65.9094 117.583 68.7579 116.027 71.1851C114.471 73.5981 112.3 75.4686 109.516 76.7964C106.732 78.11 103.498 78.7668 99.8143 78.7668C96.0877 78.7668 92.8323 78.11 90.0481 76.7964C87.2639 75.4686 85.1007 73.5981 83.5587 71.1851C82.0167 68.7579 81.2457 65.9094 81.2457 62.6397V34.3477H91.8471V61.7188C91.8471 63.2323 92.1755 64.5815 92.8323 65.7666C93.5034 66.9517 94.4386 67.8798 95.638 68.5508C96.8373 69.2219 98.2294 69.5574 99.8143 69.5574C101.399 69.5574 102.784 69.2219 103.969 68.5508C105.169 67.8798 106.104 66.9517 106.775 65.7666C107.446 64.5815 107.781 63.2323 107.781 61.7188V34.3477ZM160.527 34.3477V78.21H151.532L134.077 52.8949H133.798V78.21H123.197V34.3477H132.321L149.583 59.6199H149.947V34.3477H160.527ZM205.198 50.2392H194.49C194.347 49.1398 194.054 48.1475 193.611 47.2622C193.169 46.377 192.583 45.6202 191.855 44.992C191.127 44.3638 190.263 43.8855 189.264 43.5571C188.279 43.2144 187.186 43.043 185.987 43.043C183.86 43.043 182.025 43.5642 180.483 44.6065C178.955 45.6488 177.777 47.1551 176.949 49.1255C176.135 51.0959 175.728 53.4803 175.728 56.2788C175.728 59.1916 176.142 61.6331 176.97 63.6035C177.813 65.5596 178.991 67.0374 180.504 68.0368C182.032 69.022 183.838 69.5146 185.923 69.5146C187.094 69.5146 188.157 69.3647 189.114 69.0648C190.085 68.765 190.934 68.3295 191.662 67.7584C192.405 67.173 193.012 66.4662 193.483 65.6381C193.968 64.7957 194.304 63.8462 194.49 62.7896L205.198 62.8539C205.012 64.7957 204.449 66.709 203.506 68.5937C202.578 70.4784 201.3 72.1989 199.672 73.7552C198.045 75.2972 196.06 76.5251 193.719 77.4389C191.391 78.3527 188.721 78.8096 185.709 78.8096C181.739 78.8096 178.184 77.9387 175.043 76.1968C171.916 74.4405 169.446 71.8848 167.632 68.5294C165.819 65.1741 164.913 61.0905 164.913 56.2788C164.913 51.4528 165.833 47.3622 167.675 44.0068C169.517 40.6515 172.009 38.1028 175.15 36.3609C178.291 34.619 181.811 33.748 185.709 33.748C188.364 33.748 190.82 34.1192 193.076 34.8617C195.332 35.5899 197.317 36.6607 199.03 38.0743C200.743 39.4735 202.135 41.194 203.206 43.2358C204.277 45.2776 204.941 47.612 205.198 50.2392ZM209.455 78.21V34.3477H220.057V51.9526H237.34V34.3477H247.92V78.21H237.34V60.5837H220.057V78.21H209.455ZM252.761 78.21V34.3477H283.345V42.9574H263.363V51.9526H281.781V60.5837H263.363V69.6003H283.345V78.21H252.761ZM304.387 78.21H288.175V34.3477H304.366C308.835 34.3477 312.683 35.2258 315.91 36.982C319.151 38.7239 321.65 41.2369 323.406 44.5208C325.162 47.7905 326.04 51.7027 326.04 56.2574C326.04 60.8264 325.162 64.7529 323.406 68.0368C321.664 71.3208 319.172 73.8409 315.931 75.5971C312.69 77.339 308.842 78.21 304.387 78.21ZM298.776 69.1719H303.981C306.436 69.1719 308.514 68.7579 310.213 67.9297C311.926 67.0873 313.218 65.7238 314.089 63.8391C314.975 61.9401 315.417 59.4129 315.417 56.2574C315.417 53.102 314.975 50.589 314.089 48.7186C313.204 46.8339 311.898 45.4775 310.17 44.6493C308.457 43.8069 306.344 43.3857 303.831 43.3857H298.776V69.1719Z"/>
</mask>
<g filter="url(#filter0_i_7_696)">
<path d="M3.40962 78.21V34.3477H14.0111V69.6003H32.2585V78.21H3.40962ZM46.0141 78.21H34.6201L49.4194 34.3477H63.5333L78.3325 78.21H66.9386L56.637 45.3989H56.2943L46.0141 78.21ZM44.4934 60.9478H68.3093V69.0006H44.4934V60.9478ZM107.781 34.3477H118.362V62.6397C118.362 65.9094 117.583 68.7579 116.027 71.1851C114.471 73.5981 112.3 75.4686 109.516 76.7964C106.732 78.11 103.498 78.7668 99.8143 78.7668C96.0877 78.7668 92.8323 78.11 90.0481 76.7964C87.2639 75.4686 85.1007 73.5981 83.5587 71.1851C82.0167 68.7579 81.2457 65.9094 81.2457 62.6397V34.3477H91.8471V61.7188C91.8471 63.2323 92.1755 64.5815 92.8323 65.7666C93.5034 66.9517 94.4386 67.8798 95.638 68.5508C96.8373 69.2219 98.2294 69.5574 99.8143 69.5574C101.399 69.5574 102.784 69.2219 103.969 68.5508C105.169 67.8798 106.104 66.9517 106.775 65.7666C107.446 64.5815 107.781 63.2323 107.781 61.7188V34.3477ZM160.527 34.3477V78.21H151.532L134.077 52.8949H133.798V78.21H123.197V34.3477H132.321L149.583 59.6199H149.947V34.3477H160.527ZM205.198 50.2392H194.49C194.347 49.1398 194.054 48.1475 193.611 47.2622C193.169 46.377 192.583 45.6202 191.855 44.992C191.127 44.3638 190.263 43.8855 189.264 43.5571C188.279 43.2144 187.186 43.043 185.987 43.043C183.86 43.043 182.025 43.5642 180.483 44.6065C178.955 45.6488 177.777 47.1551 176.949 49.1255C176.135 51.0959 175.728 53.4803 175.728 56.2788C175.728 59.1916 176.142 61.6331 176.97 63.6035C177.813 65.5596 178.991 67.0374 180.504 68.0368C182.032 69.022 183.838 69.5146 185.923 69.5146C187.094 69.5146 188.157 69.3647 189.114 69.0648C190.085 68.765 190.934 68.3295 191.662 67.7584C192.405 67.173 193.012 66.4662 193.483 65.6381C193.968 64.7957 194.304 63.8462 194.49 62.7896L205.198 62.8539C205.012 64.7957 204.449 66.709 203.506 68.5937C202.578 70.4784 201.3 72.1989 199.672 73.7552C198.045 75.2972 196.06 76.5251 193.719 77.4389C191.391 78.3527 188.721 78.8096 185.709 78.8096C181.739 78.8096 178.184 77.9387 175.043 76.1968C171.916 74.4405 169.446 71.8848 167.632 68.5294C165.819 65.1741 164.913 61.0905 164.913 56.2788C164.913 51.4528 165.833 47.3622 167.675 44.0068C169.517 40.6515 172.009 38.1028 175.15 36.3609C178.291 34.619 181.811 33.748 185.709 33.748C188.364 33.748 190.82 34.1192 193.076 34.8617C195.332 35.5899 197.317 36.6607 199.03 38.0743C200.743 39.4735 202.135 41.194 203.206 43.2358C204.277 45.2776 204.941 47.612 205.198 50.2392ZM209.455 78.21V34.3477H220.057V51.9526H237.34V34.3477H247.92V78.21H237.34V60.5837H220.057V78.21H209.455ZM252.761 78.21V34.3477H283.345V42.9574H263.363V51.9526H281.781V60.5837H263.363V69.6003H283.345V78.21H252.761ZM304.387 78.21H288.175V34.3477H304.366C308.835 34.3477 312.683 35.2258 315.91 36.982C319.151 38.7239 321.65 41.2369 323.406 44.5208C325.162 47.7905 326.04 51.7027 326.04 56.2574C326.04 60.8264 325.162 64.7529 323.406 68.0368C321.664 71.3208 319.172 73.8409 315.931 75.5971C312.69 77.339 308.842 78.21 304.387 78.21ZM298.776 69.1719H303.981C306.436 69.1719 308.514 68.7579 310.213 67.9297C311.926 67.0873 313.218 65.7238 314.089 63.8391C314.975 61.9401 315.417 59.4129 315.417 56.2574C315.417 53.102 314.975 50.589 314.089 48.7186C313.204 46.8339 311.898 45.4775 310.17 44.6493C308.457 43.8069 306.344 43.3857 303.831 43.3857H298.776V69.1719Z" fill="url(#paint0_linear_7_696)"/>
</g>
<path d="M3.40962 78.21H2.97883V78.6408H3.40962V78.21ZM3.40962 34.3477V33.9169H2.97883V34.3477H3.40962ZM14.0111 34.3477H14.4419V33.9169H14.0111V34.3477ZM14.0111 69.6003H13.5803V70.0311H14.0111V69.6003ZM32.2585 69.6003H32.6893V69.1695H32.2585V69.6003ZM32.2585 78.21V78.6408H32.6893V78.21H32.2585ZM3.84041 78.21V34.3477H2.97883V78.21H3.84041ZM3.40962 34.7785H14.0111V33.9169H3.40962V34.7785ZM13.5803 34.3477V69.6003H14.4419V34.3477H13.5803ZM14.0111 70.0311H32.2585V69.1695H14.0111V70.0311ZM31.8277 69.6003V78.21H32.6893V69.6003H31.8277ZM32.2585 77.7792H3.40962V78.6408H32.2585V77.7792ZM46.0141 78.21V78.6408H46.3305L46.4251 78.3388L46.0141 78.21ZM34.6201 78.21L34.212 78.0722L34.0201 78.6408H34.6201V78.21ZM49.4194 34.3477V33.9169H49.1101L49.0112 34.21L49.4194 34.3477ZM63.5333 34.3477L63.9414 34.21L63.8426 33.9169H63.5333V34.3477ZM78.3325 78.21V78.6408H78.9325L78.7407 78.0722L78.3325 78.21ZM66.9386 78.21L66.5276 78.339L66.6223 78.6408H66.9386V78.21ZM56.637 45.3989L57.048 45.2699L56.9532 44.9681H56.637V45.3989ZM56.2943 45.3989V44.9681H55.9778L55.8832 45.2701L56.2943 45.3989ZM44.4934 60.9478V60.517H44.0627V60.9478H44.4934ZM68.3093 60.9478H68.7401V60.517H68.3093V60.9478ZM68.3093 69.0006V69.4314H68.7401V69.0006H68.3093ZM44.4934 69.0006H44.0627V69.4314H44.4934V69.0006ZM46.0141 77.7792H34.6201V78.6408H46.0141V77.7792ZM35.0283 78.3477L49.8276 34.4854L49.0112 34.21L34.212 78.0722L35.0283 78.3477ZM49.4194 34.7785H63.5333V33.9169H49.4194V34.7785ZM63.1251 34.4854L77.9243 78.3477L78.7407 78.0722L63.9414 34.21L63.1251 34.4854ZM78.3325 77.7792H66.9386V78.6408H78.3325V77.7792ZM67.3496 78.0809L57.048 45.2699L56.2259 45.528L66.5276 78.339L67.3496 78.0809ZM56.637 44.9681H56.2943V45.8297H56.637V44.9681ZM55.8832 45.2701L45.603 78.0812L46.4251 78.3388L56.7054 45.5277L55.8832 45.2701ZM44.4934 61.3786H68.3093V60.517H44.4934V61.3786ZM67.8785 60.9478V69.0006H68.7401V60.9478H67.8785ZM68.3093 68.5698H44.4934V69.4314H68.3093V68.5698ZM44.9242 69.0006V60.9478H44.0627V69.0006H44.9242ZM107.781 34.3477V33.9169H107.351V34.3477H107.781ZM118.362 34.3477H118.792V33.9169H118.362V34.3477ZM116.027 71.1851L116.389 71.4186L116.39 71.4177L116.027 71.1851ZM109.516 76.7964L109.7 77.186L109.702 77.1853L109.516 76.7964ZM90.0481 76.7964L89.8626 77.1853L89.8643 77.186L90.0481 76.7964ZM83.5587 71.1851L83.1951 71.4161L83.1957 71.4171L83.5587 71.1851ZM81.2457 34.3477V33.9169H80.8149V34.3477H81.2457ZM91.8471 34.3477H92.2779V33.9169H91.8471V34.3477ZM92.8323 65.7666L92.4555 65.9754L92.4575 65.9789L92.8323 65.7666ZM95.638 68.5508L95.8483 68.1749L95.8483 68.1749L95.638 68.5508ZM103.969 68.5508L103.759 68.1749L103.757 68.176L103.969 68.5508ZM107.781 34.7785H118.362V33.9169H107.781V34.7785ZM117.931 34.3477V62.6397H118.792V34.3477H117.931ZM117.931 62.6397C117.931 65.8383 117.17 68.6037 115.664 70.9526L116.39 71.4177C117.996 68.912 118.792 65.9805 118.792 62.6397H117.931ZM115.665 70.9517C114.155 73.2925 112.048 75.1115 109.331 76.4076L109.702 77.1853C112.552 75.8257 114.786 73.9038 116.389 71.4186L115.665 70.9517ZM109.332 76.4068C106.616 77.6885 103.447 78.336 99.8143 78.336V79.1976C103.549 79.1976 106.848 78.5316 109.7 77.186L109.332 76.4068ZM99.8143 78.336C96.1381 78.336 92.9478 77.6882 90.2319 76.4068L89.8643 77.186C92.7168 78.5318 96.0373 79.1976 99.8143 79.1976V78.336ZM90.2335 76.4076C87.5162 75.1116 85.417 73.2931 83.9217 70.9532L83.1957 71.4171C84.7845 73.9032 87.0116 75.8255 89.8627 77.1853L90.2335 76.4076ZM83.9223 70.9541C82.43 68.605 81.6764 65.8391 81.6764 62.6397H80.8149C80.8149 65.9797 81.6034 68.9107 83.1951 71.4161L83.9223 70.9541ZM81.6764 62.6397V34.3477H80.8149V62.6397H81.6764ZM81.2457 34.7785H91.8471V33.9169H81.2457V34.7785ZM91.4163 34.3477V61.7188H92.2779V34.3477H91.4163ZM91.4163 61.7188C91.4163 63.2966 91.7593 64.7192 92.4555 65.9754L93.2091 65.5578C92.5917 64.4438 92.2779 63.1679 92.2779 61.7188H91.4163ZM92.4575 65.9789C93.1677 67.2332 94.1601 68.2176 95.4276 68.9268L95.8483 68.1749C94.7171 67.5419 93.839 66.6702 93.2072 65.5543L92.4575 65.9789ZM95.4276 68.9268C96.7005 69.639 98.1672 69.9882 99.8143 69.9882V69.1267C98.2917 69.1267 96.9741 68.8048 95.8483 68.1749L95.4276 68.9268ZM99.8143 69.9882C101.461 69.9882 102.922 69.639 104.181 68.9257L103.757 68.176C102.647 68.8048 101.337 69.1267 99.8143 69.1267V69.9882ZM104.18 68.9268C105.447 68.2176 106.439 67.2332 107.15 65.9789L106.4 65.5543C105.768 66.6702 104.89 67.5419 103.759 68.1749L104.18 68.9268ZM107.15 65.9789C107.861 64.7221 108.212 63.2982 108.212 61.7188H107.351C107.351 63.1663 107.03 64.441 106.4 65.5543L107.15 65.9789ZM108.212 61.7188V34.3477H107.351V61.7188H108.212ZM160.527 34.3477H160.958V33.9169H160.527V34.3477ZM160.527 78.21V78.6408H160.958V78.21H160.527ZM151.532 78.21L151.177 78.4545L151.305 78.6408H151.532V78.21ZM134.077 52.8949L134.431 52.6504L134.303 52.4641H134.077V52.8949ZM133.798 52.8949V52.4641H133.368V52.8949H133.798ZM133.798 78.21V78.6408H134.229V78.21H133.798ZM123.197 78.21H122.766V78.6408H123.197V78.21ZM123.197 34.3477V33.9169H122.766V34.3477H123.197ZM132.321 34.3477L132.676 34.1047L132.548 33.9169H132.321V34.3477ZM149.583 59.6199L149.227 59.8629L149.355 60.0507H149.583V59.6199ZM149.947 59.6199V60.0507H150.378V59.6199H149.947ZM149.947 34.3477V33.9169H149.516V34.3477H149.947ZM160.096 34.3477V78.21H160.958V34.3477H160.096ZM160.527 77.7792H151.532V78.6408H160.527V77.7792ZM151.886 77.9654L134.431 52.6504L133.722 53.1395L151.177 78.4545L151.886 77.9654ZM134.077 52.4641H133.798V53.3257H134.077V52.4641ZM133.368 52.8949V78.21H134.229V52.8949H133.368ZM133.798 77.7792H123.197V78.6408H133.798V77.7792ZM123.628 78.21V34.3477H122.766V78.21H123.628ZM123.197 34.7785H132.321V33.9169H123.197V34.7785ZM131.965 34.5907L149.227 59.8629L149.938 59.3769L132.676 34.1047L131.965 34.5907ZM149.583 60.0507H149.947V59.1891H149.583V60.0507ZM150.378 59.6199V34.3477H149.516V59.6199H150.378ZM149.947 34.7785H160.527V33.9169H149.947V34.7785ZM205.198 50.2392V50.67H205.673L205.627 50.1973L205.198 50.2392ZM194.49 50.2392L194.062 50.2947L194.111 50.67H194.49V50.2392ZM193.611 47.2622L193.226 47.4549L193.226 47.4549L193.611 47.2622ZM191.855 44.992L192.137 44.6658L192.137 44.6658L191.855 44.992ZM189.264 43.5571L189.122 43.964L189.129 43.9663L189.264 43.5571ZM180.483 44.6065L180.242 44.2496L180.24 44.2506L180.483 44.6065ZM176.949 49.1255L176.552 48.9586L176.551 48.961L176.949 49.1255ZM176.97 63.6035L176.573 63.7704L176.575 63.7739L176.97 63.6035ZM180.504 68.0368L180.267 68.3963L180.271 68.3989L180.504 68.0368ZM189.114 69.0648L188.987 68.6532L188.985 68.6538L189.114 69.0648ZM191.662 67.7584L191.928 68.0974L191.929 68.0967L191.662 67.7584ZM193.483 65.6381L193.11 65.423L193.109 65.4251L193.483 65.6381ZM194.49 62.7896L194.492 62.3589L194.128 62.3567L194.065 62.7151L194.49 62.7896ZM205.198 62.8539L205.627 62.8949L205.672 62.4259L205.201 62.4231L205.198 62.8539ZM203.506 68.5937L203.121 68.401L203.12 68.4034L203.506 68.5937ZM199.672 73.7552L199.969 74.0679L199.97 74.0666L199.672 73.7552ZM193.719 77.4389L193.562 77.0376L193.561 77.038L193.719 77.4389ZM175.043 76.1968L174.832 76.5724L174.834 76.5735L175.043 76.1968ZM167.632 68.5294L168.011 68.3246L167.632 68.5294ZM167.675 44.0068L167.298 43.7995L167.298 43.7995L167.675 44.0068ZM193.076 34.8617L192.941 35.2709L192.944 35.2717L193.076 34.8617ZM199.03 38.0743L198.756 38.4066L198.757 38.4079L199.03 38.0743ZM205.198 49.8084H194.49V50.67H205.198V49.8084ZM194.917 50.1837C194.769 49.0422 194.463 48.0027 193.997 47.0696L193.226 47.4549C193.645 48.2922 193.925 49.2373 194.062 50.2947L194.917 50.1837ZM193.997 47.0696C193.529 46.1349 192.909 45.3324 192.137 44.6658L191.574 45.3182C192.258 45.9081 192.808 46.6191 193.226 47.4549L193.997 47.0696ZM192.137 44.6658C191.362 43.9971 190.447 43.4922 189.398 43.1478L189.129 43.9663C190.08 44.2787 190.893 44.7304 191.574 45.3182L192.137 44.6658ZM189.405 43.1502C188.368 42.7895 187.227 42.6123 185.987 42.6123V43.4738C187.145 43.4738 188.189 43.6393 189.122 43.9639L189.405 43.1502ZM185.987 42.6123C183.786 42.6123 181.865 43.1525 180.242 44.2496L180.724 44.9634C182.185 43.9759 183.933 43.4738 185.987 43.4738V42.6123ZM180.24 44.2506C178.633 45.3467 177.407 46.9239 176.552 48.9586L177.346 49.2924C178.147 47.3864 179.277 45.9509 180.726 44.9624L180.24 44.2506ZM176.551 48.961C175.71 50.9971 175.297 53.4407 175.297 56.2788H176.159C176.159 53.52 176.56 51.1947 177.347 49.29L176.551 48.961ZM175.297 56.2788C175.297 59.2294 175.716 61.7317 176.573 63.7704L177.367 63.4366C176.568 61.5345 176.159 59.1538 176.159 56.2788H175.297ZM176.575 63.7739C177.444 65.7934 178.672 67.343 180.267 68.3963L180.742 67.6773C179.31 66.7317 178.181 65.3258 177.366 63.4331L176.575 63.7739ZM180.271 68.3989C181.878 69.4352 183.768 69.9454 185.923 69.9454V69.0838C183.908 69.0838 182.186 68.6088 180.738 67.6748L180.271 68.3989ZM185.923 69.9454C187.13 69.9454 188.238 69.7908 189.243 69.4759L188.985 68.6538C188.076 68.9386 187.057 69.0838 185.923 69.0838V69.9454ZM189.241 69.4765C190.257 69.1626 191.155 68.704 191.928 68.0974L191.397 67.4194C190.714 67.955 189.912 68.3674 188.987 68.6532L189.241 69.4765ZM191.929 68.0967C192.716 67.4766 193.359 66.7272 193.857 65.8511L193.109 65.4251C192.665 66.2053 192.094 66.8694 191.396 67.4201L191.929 68.0967ZM193.856 65.8532C194.369 64.963 194.72 63.9651 194.914 62.8642L194.065 62.7151C193.887 63.7273 193.568 64.6284 193.11 65.423L193.856 65.8532ZM194.487 63.2204L205.196 63.2847L205.201 62.4231L194.492 62.3589L194.487 63.2204ZM204.769 62.8129C204.589 64.6978 204.041 66.5599 203.121 68.401L203.891 68.7863C204.856 66.858 205.436 64.8936 205.627 62.8949L204.769 62.8129ZM203.12 68.4034C202.215 70.2397 200.969 71.9198 199.375 73.4438L199.97 74.0666C201.632 72.4779 202.941 70.7171 203.893 68.784L203.12 68.4034ZM199.376 73.4425C197.794 74.9419 195.858 76.1416 193.562 77.0376L193.875 77.8403C196.262 76.9087 198.296 75.6526 199.969 74.0679L199.376 73.4425ZM193.561 77.038C191.293 77.9285 188.678 78.3789 185.709 78.3789V79.2404C188.764 79.2404 191.489 78.777 193.876 77.8399L193.561 77.038ZM185.709 78.3789C181.804 78.3789 178.322 77.5229 175.252 75.82L174.834 76.5735C178.046 78.3545 181.674 79.2404 185.709 79.2404V78.3789ZM175.254 75.8211C172.202 74.1074 169.789 71.613 168.011 68.3246L167.253 68.7342C169.103 72.1565 171.629 74.7737 174.832 76.5724L175.254 75.8211ZM168.011 68.3246C166.24 65.0465 165.343 61.0374 165.343 56.2788H164.482C164.482 61.1437 165.398 65.3016 167.253 68.7342L168.011 68.3246ZM165.343 56.2788C165.343 51.5068 166.254 47.4915 168.053 44.2141L167.298 43.7995C165.413 47.2329 164.482 51.3989 164.482 56.2788H165.343ZM168.053 44.2141C169.858 40.9251 172.293 38.4375 175.359 36.7376L174.941 35.9842C171.724 37.7681 169.176 40.3778 167.298 43.7995L168.053 44.2141ZM175.359 36.7376C178.431 35.0341 181.877 34.1788 185.709 34.1788V33.3172C181.744 33.3172 178.151 34.2038 174.941 35.9842L175.359 36.7376ZM185.709 34.1788C188.324 34.1788 190.734 34.5443 192.941 35.2709L193.211 34.4525C190.906 33.6942 188.405 33.3172 185.709 33.3172V34.1788ZM192.944 35.2717C195.151 35.9843 197.087 37.0299 198.756 38.4066L199.304 37.742C197.546 36.2916 195.513 35.1955 193.208 34.4517L192.944 35.2717ZM198.757 38.4079C200.424 39.7689 201.78 41.4433 202.825 43.4359L203.588 43.0357C202.491 40.9447 201.063 39.1781 199.302 37.7406L198.757 38.4079ZM202.825 43.4359C203.866 45.4219 204.517 47.7013 204.769 50.2811L205.627 50.1973C205.365 47.5228 204.688 45.1333 203.588 43.0357L202.825 43.4359ZM209.455 78.21H209.024V78.6408H209.455V78.21ZM209.455 34.3477V33.9169H209.024V34.3477H209.455ZM220.057 34.3477H220.487V33.9169H220.057V34.3477ZM220.057 51.9526H219.626V52.3834H220.057V51.9526ZM237.34 51.9526V52.3834H237.771V51.9526H237.34ZM237.34 34.3477V33.9169H236.909V34.3477H237.34ZM247.92 34.3477H248.351V33.9169H247.92V34.3477ZM247.92 78.21V78.6408H248.351V78.21H247.92ZM237.34 78.21H236.909V78.6408H237.34V78.21ZM237.34 60.5837H237.771V60.1529H237.34V60.5837ZM220.057 60.5837V60.1529H219.626V60.5837H220.057ZM220.057 78.21V78.6408H220.487V78.21H220.057ZM209.886 78.21V34.3477H209.024V78.21H209.886ZM209.455 34.7785H220.057V33.9169H209.455V34.7785ZM219.626 34.3477V51.9526H220.487V34.3477H219.626ZM220.057 52.3834H237.34V51.5218H220.057V52.3834ZM237.771 51.9526V34.3477H236.909V51.9526H237.771ZM237.34 34.7785H247.92V33.9169H237.34V34.7785ZM247.49 34.3477V78.21H248.351V34.3477H247.49ZM247.92 77.7792H237.34V78.6408H247.92V77.7792ZM237.771 78.21V60.5837H236.909V78.21H237.771ZM237.34 60.1529H220.057V61.0145H237.34V60.1529ZM219.626 60.5837V78.21H220.487V60.5837H219.626ZM220.057 77.7792H209.455V78.6408H220.057V77.7792ZM252.761 78.21H252.33V78.6408H252.761V78.21ZM252.761 34.3477V33.9169H252.33V34.3477H252.761ZM283.345 34.3477H283.775V33.9169H283.345V34.3477ZM283.345 42.9574V43.3882H283.775V42.9574H283.345ZM263.363 42.9574V42.5266H262.932V42.9574H263.363ZM263.363 51.9526H262.932V52.3834H263.363V51.9526ZM281.781 51.9526H282.212V51.5218H281.781V51.9526ZM281.781 60.5837V61.0145H282.212V60.5837H281.781ZM263.363 60.5837V60.1529H262.932V60.5837H263.363ZM263.363 69.6003H262.932V70.0311H263.363V69.6003ZM283.345 69.6003H283.775V69.1695H283.345V69.6003ZM283.345 78.21V78.6408H283.775V78.21H283.345ZM253.192 78.21V34.3477H252.33V78.21H253.192ZM252.761 34.7785H283.345V33.9169H252.761V34.7785ZM282.914 34.3477V42.9574H283.775V34.3477H282.914ZM283.345 42.5266H263.363V43.3882H283.345V42.5266ZM262.932 42.9574V51.9526H263.793V42.9574H262.932ZM263.363 52.3834H281.781V51.5218H263.363V52.3834ZM281.35 51.9526V60.5837H282.212V51.9526H281.35ZM281.781 60.1529H263.363V61.0145H281.781V60.1529ZM262.932 60.5837V69.6003H263.793V60.5837H262.932ZM263.363 70.0311H283.345V69.1695H263.363V70.0311ZM282.914 69.6003V78.21H283.775V69.6003H282.914ZM283.345 77.7792H252.761V78.6408H283.345V77.7792ZM288.175 78.21H287.744V78.6408H288.175V78.21ZM288.175 34.3477V33.9169H287.744V34.3477H288.175ZM315.91 36.982L315.704 37.3604L315.706 37.3615L315.91 36.982ZM323.406 44.5208L323.026 44.724L323.026 44.7247L323.406 44.5208ZM323.406 68.0368L323.026 67.8337L323.025 67.835L323.406 68.0368ZM315.931 75.5971L316.135 75.9765L316.136 75.9758L315.931 75.5971ZM298.776 69.1719H298.345V69.6027H298.776V69.1719ZM310.213 67.9297L310.402 68.317L310.403 68.3163L310.213 67.9297ZM314.089 63.8391L313.699 63.6571L313.698 63.6584L314.089 63.8391ZM314.089 48.7186L313.699 48.9017L313.7 48.9029L314.089 48.7186ZM310.17 44.6493L309.98 45.0359L309.984 45.0378L310.17 44.6493ZM298.776 43.3857V42.9549H298.345V43.3857H298.776ZM304.387 77.7792H288.175V78.6408H304.387V77.7792ZM288.605 78.21V34.3477H287.744V78.21H288.605ZM288.175 34.7785H304.366V33.9169H288.175V34.7785ZM304.366 34.7785C308.779 34.7785 312.553 35.6453 315.704 37.3604L316.116 36.6036C312.813 34.8063 308.892 33.9169 304.366 33.9169V34.7785ZM315.706 37.3615C318.871 39.0627 321.309 41.5139 323.026 44.724L323.786 44.3177C321.99 40.9599 319.431 38.3851 316.114 36.6025L315.706 37.3615ZM323.026 44.7247C324.742 47.919 325.609 51.7579 325.609 56.2574H326.471C326.471 51.6475 325.582 47.662 323.785 44.317L323.026 44.7247ZM325.609 56.2574C325.609 60.7714 324.742 64.6249 323.026 67.8337L323.786 68.24C325.582 64.8809 326.471 60.8814 326.471 56.2574H325.609ZM323.025 67.835C321.323 71.0446 318.892 73.5029 315.726 75.2183L316.136 75.9758C319.453 74.1789 322.005 71.5969 323.786 68.2387L323.025 67.835ZM315.727 75.2176C312.561 76.9194 308.786 77.7792 304.387 77.7792V78.6408C308.898 78.6408 312.819 77.7586 316.135 75.9765L315.727 75.2176ZM298.776 69.6027H303.981V68.7411H298.776V69.6027ZM303.981 69.6027C306.483 69.6027 308.629 69.181 310.402 68.317L310.024 67.5425C308.399 68.3347 306.39 68.7411 303.981 68.7411V69.6027ZM310.403 68.3163C312.213 67.4265 313.572 65.9857 314.48 64.0198L313.698 63.6584C312.865 65.4618 311.64 66.7482 310.023 67.5432L310.403 68.3163ZM314.48 64.0211C315.402 62.0437 315.848 59.4468 315.848 56.2574H314.986C314.986 59.3789 314.548 61.8365 313.699 63.6571L314.48 64.0211ZM315.848 56.2574C315.848 53.0685 315.402 50.4846 314.479 48.5343L313.7 48.9029C314.547 50.6934 314.986 53.1354 314.986 56.2574H315.848ZM314.479 48.5354C313.556 46.5692 312.181 45.1357 310.356 44.2609L309.984 45.0378C311.614 45.8192 312.853 47.0985 313.699 48.9017L314.479 48.5354ZM310.36 44.2627C308.572 43.3836 306.389 42.9549 303.831 42.9549V43.8165C306.298 43.8165 308.341 44.2303 309.98 45.0359L310.36 44.2627ZM303.831 42.9549H298.776V43.8165H303.831V42.9549ZM298.345 43.3857V69.1719H299.207V43.3857H298.345Z" fill="url(#paint1_linear_7_696)" mask="url(#path-1-outside-1_7_696)"/>
<mask id="path-3-outside-2_7_696" maskUnits="userSpaceOnUse" x="59" y="-0.291992" width="210" height="26" fill="black">
<rect fill="white" x="59" y="-0.291992" width="210" height="26"/>
<path d="M63.4144 0.867653L69.5607 10.7856H69.747L75.8933 0.867653H79.2924L71.7958 12.7878L79.2924 24.708H75.8933L69.747 14.9763H69.5607L63.4144 24.708H60.0153L67.6982 12.7878L60.0153 0.867653H63.4144ZM90.0284 0.867653V24.708H87.1415V3.89426H87.0018L81.1814 7.759V4.82552L87.1415 0.867653H90.0284ZM104.557 0.867653H108.002L116.104 20.657H116.384L124.486 0.867653H127.931V24.708H125.231V6.59493H124.998L117.548 24.708H114.94L107.49 6.59493H107.257V24.708H104.557V0.867653ZM135.623 0.867653V24.708H132.736V0.867653H135.623ZM159.333 0.867653V24.708H156.539L143.548 5.9896H143.315V24.708H140.428V0.867653H143.222L156.26 19.6326H156.492V0.867653H159.333ZM164.126 24.708V0.867653H178.514V3.42863H167.013V11.4841H177.769V14.045H167.013V22.147H178.7V24.708H164.126ZM182.734 24.708V0.867653H190.79C192.652 0.867653 194.181 1.18583 195.376 1.8222C196.571 2.4508 197.456 3.3161 198.03 4.4181C198.604 5.52009 198.892 6.77342 198.892 8.17807C198.892 9.58273 198.604 10.8283 198.03 11.9148C197.456 13.0012 196.575 13.8549 195.388 14.4757C194.2 15.0888 192.683 15.3954 190.836 15.3954H184.317V12.7878H190.743C192.016 12.7878 193.04 12.6016 193.816 12.2291C194.6 11.8566 195.167 11.3289 195.516 10.6459C195.873 9.95524 196.051 9.13262 196.051 8.17807C196.051 7.22353 195.873 6.38927 195.516 5.6753C195.159 4.96133 194.588 4.41034 193.805 4.02231C193.021 3.62652 191.985 3.42863 190.697 3.42863H185.621V24.708H182.734ZM193.956 13.9985L199.823 24.708H196.47L190.697 13.9985H193.956ZM211.933 24.708H208.906L217.66 0.867653H220.64L229.394 24.708H226.367L219.243 4.63927H219.057L211.933 24.708ZM213.05 15.3954H225.25V17.9563H213.05V15.3954ZM232.124 24.708V0.867653H240.179C242.05 0.867653 243.578 1.20524 244.766 1.8804C245.961 2.54781 246.846 3.45191 247.42 4.59271C247.994 5.73351 248.281 7.00623 248.281 8.41089C248.281 9.81555 247.994 11.0922 247.42 12.2407C246.853 13.3893 245.976 14.305 244.789 14.9879C243.602 15.6631 242.081 16.0007 240.226 16.0007H234.452V13.4397H240.133C241.413 13.4397 242.442 13.2185 243.218 12.7762C243.994 12.3338 244.556 11.7363 244.905 10.9835C245.262 10.223 245.441 9.36544 245.441 8.41089C245.441 7.45635 245.262 6.60269 244.905 5.84991C244.556 5.09714 243.99 4.50734 243.206 4.08051C242.422 3.64592 241.382 3.42863 240.086 3.42863H235.011V24.708H232.124ZM251.948 24.708V0.867653H260.004C261.874 0.867653 263.403 1.20524 264.59 1.8804C265.785 2.54781 266.67 3.45191 267.244 4.59271C267.819 5.73351 268.106 7.00623 268.106 8.41089C268.106 9.81555 267.819 11.0922 267.244 12.2407C266.678 13.3893 265.801 14.305 264.614 14.9879C263.426 15.6631 261.905 16.0007 260.05 16.0007H254.277V13.4397H259.957C261.238 13.4397 262.266 13.2185 263.042 12.7762C263.818 12.3338 264.381 11.7363 264.73 10.9835C265.087 10.223 265.265 9.36544 265.265 8.41089C265.265 7.45635 265.087 6.60269 264.73 5.84991C264.381 5.09714 263.814 4.50734 263.03 4.08051C262.247 3.64592 261.207 3.42863 259.911 3.42863H254.835V24.708H251.948Z"/>
</mask>
<g filter="url(#filter1_i_7_696)">
<path d="M63.4144 0.867653L69.5607 10.7856H69.747L75.8933 0.867653H79.2924L71.7958 12.7878L79.2924 24.708H75.8933L69.747 14.9763H69.5607L63.4144 24.708H60.0153L67.6982 12.7878L60.0153 0.867653H63.4144ZM90.0284 0.867653V24.708H87.1415V3.89426H87.0018L81.1814 7.759V4.82552L87.1415 0.867653H90.0284ZM104.557 0.867653H108.002L116.104 20.657H116.384L124.486 0.867653H127.931V24.708H125.231V6.59493H124.998L117.548 24.708H114.94L107.49 6.59493H107.257V24.708H104.557V0.867653ZM135.623 0.867653V24.708H132.736V0.867653H135.623ZM159.333 0.867653V24.708H156.539L143.548 5.9896H143.315V24.708H140.428V0.867653H143.222L156.26 19.6326H156.492V0.867653H159.333ZM164.126 24.708V0.867653H178.514V3.42863H167.013V11.4841H177.769V14.045H167.013V22.147H178.7V24.708H164.126ZM182.734 24.708V0.867653H190.79C192.652 0.867653 194.181 1.18583 195.376 1.8222C196.571 2.4508 197.456 3.3161 198.03 4.4181C198.604 5.52009 198.892 6.77342 198.892 8.17807C198.892 9.58273 198.604 10.8283 198.03 11.9148C197.456 13.0012 196.575 13.8549 195.388 14.4757C194.2 15.0888 192.683 15.3954 190.836 15.3954H184.317V12.7878H190.743C192.016 12.7878 193.04 12.6016 193.816 12.2291C194.6 11.8566 195.167 11.3289 195.516 10.6459C195.873 9.95524 196.051 9.13262 196.051 8.17807C196.051 7.22353 195.873 6.38927 195.516 5.6753C195.159 4.96133 194.588 4.41034 193.805 4.02231C193.021 3.62652 191.985 3.42863 190.697 3.42863H185.621V24.708H182.734ZM193.956 13.9985L199.823 24.708H196.47L190.697 13.9985H193.956ZM211.933 24.708H208.906L217.66 0.867653H220.64L229.394 24.708H226.367L219.243 4.63927H219.057L211.933 24.708ZM213.05 15.3954H225.25V17.9563H213.05V15.3954ZM232.124 24.708V0.867653H240.179C242.05 0.867653 243.578 1.20524 244.766 1.8804C245.961 2.54781 246.846 3.45191 247.42 4.59271C247.994 5.73351 248.281 7.00623 248.281 8.41089C248.281 9.81555 247.994 11.0922 247.42 12.2407C246.853 13.3893 245.976 14.305 244.789 14.9879C243.602 15.6631 242.081 16.0007 240.226 16.0007H234.452V13.4397H240.133C241.413 13.4397 242.442 13.2185 243.218 12.7762C243.994 12.3338 244.556 11.7363 244.905 10.9835C245.262 10.223 245.441 9.36544 245.441 8.41089C245.441 7.45635 245.262 6.60269 244.905 5.84991C244.556 5.09714 243.99 4.50734 243.206 4.08051C242.422 3.64592 241.382 3.42863 240.086 3.42863H235.011V24.708H232.124ZM251.948 24.708V0.867653H260.004C261.874 0.867653 263.403 1.20524 264.59 1.8804C265.785 2.54781 266.67 3.45191 267.244 4.59271C267.819 5.73351 268.106 7.00623 268.106 8.41089C268.106 9.81555 267.819 11.0922 267.244 12.2407C266.678 13.3893 265.801 14.305 264.614 14.9879C263.426 15.6631 261.905 16.0007 260.05 16.0007H254.277V13.4397H259.957C261.238 13.4397 262.266 13.2185 263.042 12.7762C263.818 12.3338 264.381 11.7363 264.73 10.9835C265.087 10.223 265.265 9.36544 265.265 8.41089C265.265 7.45635 265.087 6.60269 264.73 5.84991C264.381 5.09714 263.814 4.50734 263.03 4.08051C262.247 3.64592 261.207 3.42863 259.911 3.42863H254.835V24.708H251.948Z" fill="url(#paint2_linear_7_696)"/>
</g>
<path d="M63.4144 0.867653L63.6872 0.698591L63.5931 0.54671H63.4144V0.867653ZM69.5607 10.7856L69.2879 10.9547L69.3821 11.1066H69.5607V10.7856ZM69.747 10.7856V11.1066H69.9257L70.0198 10.9547L69.747 10.7856ZM75.8933 0.867653V0.54671H75.7147L75.6205 0.698591L75.8933 0.867653ZM79.2924 0.867653L79.5641 1.03851L79.8734 0.54671H79.2924V0.867653ZM71.7958 12.7878L71.5241 12.617L71.4166 12.7878L71.5241 12.9587L71.7958 12.7878ZM79.2924 24.708V25.029H79.8734L79.5641 24.5371L79.2924 24.708ZM75.8933 24.708L75.622 24.8794L75.7164 25.029H75.8933V24.708ZM69.747 14.9763L70.0183 14.8049L69.9239 14.6554H69.747V14.9763ZM69.5607 14.9763V14.6554H69.3838L69.2894 14.8049L69.5607 14.9763ZM63.4144 24.708V25.029H63.5913L63.6858 24.8794L63.4144 24.708ZM60.0153 24.708L59.7455 24.5341L59.4266 25.029H60.0153V24.708ZM67.6982 12.7878L67.968 12.9617L68.08 12.7878L67.968 12.614L67.6982 12.7878ZM60.0153 0.867653V0.54671H59.4266L59.7455 1.04152L60.0153 0.867653ZM63.1416 1.03672L69.2879 10.9547L69.8335 10.6166L63.6872 0.698591L63.1416 1.03672ZM69.5607 11.1066H69.747V10.4647H69.5607V11.1066ZM70.0198 10.9547L76.1661 1.03672L75.6205 0.698591L69.4742 10.6166L70.0198 10.9547ZM75.8933 1.1886H79.2924V0.54671H75.8933V1.1886ZM79.0208 0.696791L71.5241 12.617L72.0675 12.9587L79.5641 1.03851L79.0208 0.696791ZM71.5241 12.9587L79.0208 24.8789L79.5641 24.5371L72.0675 12.617L71.5241 12.9587ZM79.2924 24.3871H75.8933V25.029H79.2924V24.3871ZM76.1647 24.5366L70.0183 14.8049L69.4756 15.1477L75.622 24.8794L76.1647 24.5366ZM69.747 14.6554H69.5607V15.2972H69.747V14.6554ZM69.2894 14.8049L63.143 24.5366L63.6858 24.8794L69.8321 15.1477L69.2894 14.8049ZM63.4144 24.3871H60.0153V25.029H63.4144V24.3871ZM60.2851 24.8819L67.968 12.9617L67.4284 12.614L59.7455 24.5341L60.2851 24.8819ZM67.968 12.614L60.2851 0.693781L59.7455 1.04152L67.4284 12.9617L67.968 12.614ZM60.0153 1.1886H63.4144V0.54671H60.0153V1.1886ZM90.0284 0.867653H90.3493V0.54671H90.0284V0.867653ZM90.0284 24.708V25.029H90.3493V24.708H90.0284ZM87.1415 24.708H86.8205V25.029H87.1415V24.708ZM87.1415 3.89426H87.4624V3.57332H87.1415V3.89426ZM87.0018 3.89426V3.57332H86.9049L86.8243 3.62689L87.0018 3.89426ZM81.1814 7.759H80.8605V8.35736L81.3589 8.02637L81.1814 7.759ZM81.1814 4.82552L81.0039 4.55816L80.8605 4.65339V4.82552H81.1814ZM87.1415 0.867653V0.54671H87.0446L86.9639 0.600291L87.1415 0.867653ZM89.7075 0.867653V24.708H90.3493V0.867653H89.7075ZM90.0284 24.3871H87.1415V25.029H90.0284V24.3871ZM87.4624 24.708V3.89426H86.8205V24.708H87.4624ZM87.1415 3.57332H87.0018V4.2152H87.1415V3.57332ZM86.8243 3.62689L81.0039 7.49163L81.3589 8.02637L87.1793 4.16163L86.8243 3.62689ZM81.5023 7.759V4.82552H80.8605V7.759H81.5023ZM81.3589 5.09289L87.319 1.13501L86.9639 0.600291L81.0039 4.55816L81.3589 5.09289ZM87.1415 1.1886H90.0284V0.54671H87.1415V1.1886ZM104.557 0.867653V0.54671H104.236V0.867653H104.557ZM108.002 0.867653L108.299 0.746052L108.218 0.54671H108.002V0.867653ZM116.104 20.657L115.807 20.7786L115.889 20.978H116.104V20.657ZM116.384 20.657V20.978H116.599L116.681 20.7786L116.384 20.657ZM124.486 0.867653V0.54671H124.27L124.189 0.746052L124.486 0.867653ZM127.931 0.867653H128.252V0.54671H127.931V0.867653ZM127.931 24.708V25.029H128.252V24.708H127.931ZM125.231 24.708H124.91V25.029H125.231V24.708ZM125.231 6.59493H125.552V6.27398H125.231V6.59493ZM124.998 6.59493V6.27398H124.783L124.701 6.47284L124.998 6.59493ZM117.548 24.708V25.029H117.763L117.845 24.8301L117.548 24.708ZM114.94 24.708L114.643 24.8301L114.725 25.029H114.94V24.708ZM107.49 6.59493L107.787 6.47284L107.705 6.27398H107.49V6.59493ZM107.257 6.59493V6.27398H106.936V6.59493H107.257ZM107.257 24.708V25.029H107.578V24.708H107.257ZM104.557 24.708H104.236V25.029H104.557V24.708ZM104.557 1.1886H108.002V0.54671H104.557V1.1886ZM107.705 0.989254L115.807 20.7786L116.401 20.5354L108.299 0.746052L107.705 0.989254ZM116.104 20.978H116.384V20.3361H116.104V20.978ZM116.681 20.7786L124.783 0.989254L124.189 0.746052L116.087 20.5354L116.681 20.7786ZM124.486 1.1886H127.931V0.54671H124.486V1.1886ZM127.61 0.867653V24.708H128.252V0.867653H127.61ZM127.931 24.3871H125.231V25.029H127.931V24.3871ZM125.552 24.708V6.59493H124.91V24.708H125.552ZM125.231 6.27398H124.998V6.91587H125.231V6.27398ZM124.701 6.47284L117.251 24.5859L117.845 24.8301L125.295 6.71701L124.701 6.47284ZM117.548 24.3871H114.94V25.029H117.548V24.3871ZM115.237 24.5859L107.787 6.47284L107.193 6.71701L114.643 24.8301L115.237 24.5859ZM107.49 6.27398H107.257V6.91587H107.49V6.27398ZM106.936 6.59493V24.708H107.578V6.59493H106.936ZM107.257 24.3871H104.557V25.029H107.257V24.3871ZM104.878 24.708V0.867653H104.236V24.708H104.878ZM135.623 0.867653H135.944V0.54671H135.623V0.867653ZM135.623 24.708V25.029H135.944V24.708H135.623ZM132.736 24.708H132.415V25.029H132.736V24.708ZM132.736 0.867653V0.54671H132.415V0.867653H132.736ZM135.302 0.867653V24.708H135.944V0.867653H135.302ZM135.623 24.3871H132.736V25.029H135.623V24.3871ZM133.057 24.708V0.867653H132.415V24.708H133.057ZM132.736 1.1886H135.623V0.54671H132.736V1.1886ZM159.333 0.867653H159.654V0.54671H159.333V0.867653ZM159.333 24.708V25.029H159.654V24.708H159.333ZM156.539 24.708L156.275 24.891L156.371 25.029H156.539V24.708ZM143.548 5.9896L143.812 5.80661L143.716 5.66866H143.548V5.9896ZM143.315 5.9896V5.66866H142.994V5.9896H143.315ZM143.315 24.708V25.029H143.636V24.708H143.315ZM140.428 24.708H140.107V25.029H140.428V24.708ZM140.428 0.867653V0.54671H140.107V0.867653H140.428ZM143.222 0.867653L143.486 0.684527L143.39 0.54671H143.222V0.867653ZM156.26 19.6326L155.996 19.8157L156.092 19.9536H156.26V19.6326ZM156.492 19.6326V19.9536H156.813V19.6326H156.492ZM156.492 0.867653V0.54671H156.172V0.867653H156.492ZM159.012 0.867653V24.708H159.654V0.867653H159.012ZM159.333 24.3871H156.539V25.029H159.333V24.3871ZM156.803 24.525L143.812 5.80661L143.284 6.17259L156.275 24.891L156.803 24.525ZM143.548 5.66866H143.315V6.31055H143.548V5.66866ZM142.994 5.9896V24.708H143.636V5.9896H142.994ZM143.315 24.3871H140.428V25.029H143.315V24.3871ZM140.749 24.708V0.867653H140.107V24.708H140.749ZM140.428 1.1886H143.222V0.54671H140.428V1.1886ZM142.958 1.05078L155.996 19.8157L156.523 19.4495L143.486 0.684527L142.958 1.05078ZM156.26 19.9536H156.492V19.3117H156.26V19.9536ZM156.813 19.6326V0.867653H156.172V19.6326H156.813ZM156.492 1.1886H159.333V0.54671H156.492V1.1886ZM164.126 24.708H163.805V25.029H164.126V24.708ZM164.126 0.867653V0.54671H163.805V0.867653H164.126ZM178.514 0.867653H178.835V0.54671H178.514V0.867653ZM178.514 3.42863V3.74957H178.835V3.42863H178.514ZM167.013 3.42863V3.10769H166.692V3.42863H167.013ZM167.013 11.4841H166.692V11.805H167.013V11.4841ZM177.769 11.4841H178.09V11.1631H177.769V11.4841ZM177.769 14.045V14.366H178.09V14.045H177.769ZM167.013 14.045V13.7241H166.692V14.045H167.013ZM167.013 22.147H166.692V22.468H167.013V22.147ZM178.7 22.147H179.021V21.8261H178.7V22.147ZM178.7 24.708V25.029H179.021V24.708H178.7ZM164.447 24.708V0.867653H163.805V24.708H164.447ZM164.126 1.1886H178.514V0.54671H164.126V1.1886ZM178.193 0.867653V3.42863H178.835V0.867653H178.193ZM178.514 3.10769H167.013V3.74957H178.514V3.10769ZM166.692 3.42863V11.4841H167.334V3.42863H166.692ZM167.013 11.805H177.769V11.1631H167.013V11.805ZM177.448 11.4841V14.045H178.09V11.4841H177.448ZM177.769 13.7241H167.013V14.366H177.769V13.7241ZM166.692 14.045V22.147H167.334V14.045H166.692ZM167.013 22.468H178.7V21.8261H167.013V22.468ZM178.379 22.147V24.708H179.021V22.147H178.379ZM178.7 24.3871H164.126V25.029H178.7V24.3871ZM182.734 24.708H182.413V25.029H182.734V24.708ZM182.734 0.867653V0.54671H182.413V0.867653H182.734ZM195.376 1.8222L195.225 2.10549L195.227 2.10625L195.376 1.8222ZM198.03 4.4181L197.746 4.56642L197.746 4.56642L198.03 4.4181ZM198.03 11.9148L197.746 11.7648L197.746 11.7648L198.03 11.9148ZM195.388 14.4757L195.535 14.7609L195.536 14.7602L195.388 14.4757ZM184.317 15.3954H183.996V15.7163H184.317V15.3954ZM184.317 12.7878V12.4669H183.996V12.7878H184.317ZM193.816 12.2291L193.678 11.9392L193.677 11.9397L193.816 12.2291ZM195.516 10.6459L195.231 10.4986L195.23 10.4998L195.516 10.6459ZM195.516 5.6753L195.803 5.53177L195.516 5.6753ZM193.805 4.02231L193.66 4.30881L193.662 4.30994L193.805 4.02231ZM185.621 3.42863V3.10769H185.3V3.42863H185.621ZM185.621 24.708V25.029H185.942V24.708H185.621ZM193.956 13.9985L194.237 13.8443L194.146 13.6775H193.956V13.9985ZM199.823 24.708V25.029H200.365L200.104 24.5538L199.823 24.708ZM196.47 24.708L196.188 24.8603L196.279 25.029H196.47V24.708ZM190.697 13.9985V13.6775H190.159L190.414 14.1508L190.697 13.9985ZM183.055 24.708V0.867653H182.413V24.708H183.055ZM182.734 1.1886H190.79V0.54671H182.734V1.1886ZM190.79 1.1886C192.618 1.1886 194.091 1.50138 195.225 2.10549L195.527 1.53891C194.271 0.870293 192.686 0.54671 190.79 0.54671V1.1886ZM195.227 2.10625C196.369 2.7072 197.204 3.52743 197.746 4.56642L198.315 4.26978C197.708 3.10477 196.773 2.19441 195.526 1.53815L195.227 2.10625ZM197.746 4.56642C198.293 5.61694 198.571 6.81826 198.571 8.17807H199.213C199.213 6.72858 198.916 5.42325 198.315 4.26978L197.746 4.56642ZM198.571 8.17807C198.571 9.53799 198.293 10.7308 197.746 11.7648L198.314 12.0647C198.916 10.9258 199.213 9.62747 199.213 8.17807H198.571ZM197.746 11.7648C197.205 12.7886 196.374 13.5978 195.239 14.1913L195.536 14.7602C196.776 14.1121 197.707 13.2139 198.314 12.0647L197.746 11.7648ZM195.241 14.1906C194.113 14.7729 192.651 15.0744 190.836 15.0744V15.7163C192.716 15.7163 194.288 15.4047 195.535 14.7609L195.241 14.1906ZM190.836 15.0744H184.317V15.7163H190.836V15.0744ZM184.638 15.3954V12.7878H183.996V15.3954H184.638ZM184.317 13.1088H190.743V12.4669H184.317V13.1088ZM190.743 13.1088C192.043 13.1088 193.12 12.9193 193.955 12.5184L193.677 11.9397C192.96 12.2839 191.989 12.4669 190.743 12.4669V13.1088ZM193.954 12.5189C194.793 12.1203 195.416 11.546 195.802 10.792L195.23 10.4998C194.917 11.1117 194.407 11.5928 193.678 11.9392L193.954 12.5189ZM195.801 10.7933C196.186 10.0478 196.372 9.17239 196.372 8.17807H195.73C195.73 9.09284 195.559 9.86265 195.231 10.4986L195.801 10.7933ZM196.372 8.17807C196.372 7.18337 196.186 6.29821 195.803 5.53177L195.229 5.81883C195.559 6.48033 195.73 7.26369 195.73 8.17807H196.372ZM195.803 5.53177C195.412 4.74926 194.787 4.15057 193.947 3.73468L193.662 4.30994C194.39 4.6701 194.906 5.17341 195.229 5.81883L195.803 5.53177ZM193.949 3.73582C193.105 3.30929 192.013 3.10769 190.697 3.10769V3.74957C191.956 3.74957 192.937 3.94375 193.66 4.3088L193.949 3.73582ZM190.697 3.10769H185.621V3.74957H190.697V3.10769ZM185.3 3.42863V24.708H185.942V3.42863H185.3ZM185.621 24.3871H182.734V25.029H185.621V24.3871ZM193.674 14.1527L199.541 24.8622L200.104 24.5538L194.237 13.8443L193.674 14.1527ZM199.823 24.3871H196.47V25.029H199.823V24.3871ZM196.753 24.5557L190.979 13.8462L190.414 14.1508L196.188 24.8603L196.753 24.5557ZM190.697 14.3194H193.956V13.6775H190.697V14.3194ZM211.933 24.708V25.029H212.159L212.235 24.8154L211.933 24.708ZM208.906 24.708L208.605 24.5974L208.446 25.029H208.906V24.708ZM217.66 0.867653V0.54671H217.436L217.359 0.757028L217.66 0.867653ZM220.64 0.867653L220.941 0.757028L220.864 0.54671H220.64V0.867653ZM229.394 24.708V25.029H229.854L229.695 24.5974L229.394 24.708ZM226.367 24.708L226.065 24.8154L226.141 25.029H226.367V24.708ZM219.243 4.63927L219.546 4.5319L219.47 4.31833H219.243V4.63927ZM219.057 4.63927V4.31833H218.83L218.754 4.5319L219.057 4.63927ZM213.05 15.3954V15.0744H212.729V15.3954H213.05ZM225.25 15.3954H225.571V15.0744H225.25V15.3954ZM225.25 17.9563V18.2773H225.571V17.9563H225.25ZM213.05 17.9563H212.729V18.2773H213.05V17.9563ZM211.933 24.3871H208.906V25.029H211.933V24.3871ZM209.207 24.8186L217.961 0.978277L217.359 0.757028L208.605 24.5974L209.207 24.8186ZM217.66 1.1886H220.64V0.54671H217.66V1.1886ZM220.339 0.978277L229.093 24.8186L229.695 24.5974L220.941 0.757028L220.339 0.978277ZM229.394 24.3871H226.367V25.029H229.394V24.3871ZM226.67 24.6006L219.546 4.5319L218.941 4.74664L226.065 24.8154L226.67 24.6006ZM219.243 4.31833H219.057V4.96021H219.243V4.31833ZM218.754 4.5319L211.63 24.6006L212.235 24.8154L219.359 4.74664L218.754 4.5319ZM213.05 15.7163H225.25V15.0744H213.05V15.7163ZM224.929 15.3954V17.9563H225.571V15.3954H224.929ZM225.25 17.6354H213.05V18.2773H225.25V17.6354ZM213.371 17.9563V15.3954H212.729V17.9563H213.371ZM232.124 24.708H231.803V25.029H232.124V24.708ZM232.124 0.867653V0.54671H231.803V0.867653H232.124ZM244.766 1.8804L244.607 2.1594L244.609 2.16061L244.766 1.8804ZM247.42 4.59271L247.133 4.73702L247.133 4.73702L247.42 4.59271ZM247.42 12.2407L247.133 12.0972L247.132 12.0987L247.42 12.2407ZM244.789 14.9879L244.948 15.2669L244.949 15.2661L244.789 14.9879ZM234.452 16.0007H234.131V16.3216H234.452V16.0007ZM234.452 13.4397V13.1188H234.131V13.4397H234.452ZM243.218 12.7762L243.059 12.4974L243.059 12.4974L243.218 12.7762ZM244.905 10.9835L244.615 10.8471L244.614 10.8484L244.905 10.9835ZM244.905 5.84991L244.614 5.98498L244.616 5.98743L244.905 5.84991ZM243.206 4.08051L243.05 4.36121L243.052 4.36237L243.206 4.08051ZM235.011 3.42863V3.10769H234.69V3.42863H235.011ZM235.011 24.708V25.029H235.332V24.708H235.011ZM232.445 24.708V0.867653H231.803V24.708H232.445ZM232.124 1.1886H240.179V0.54671H232.124V1.1886ZM240.179 1.1886C242.014 1.1886 243.483 1.52003 244.607 2.15939L244.924 1.60141C243.674 0.890441 242.086 0.54671 240.179 0.54671V1.1886ZM244.609 2.16061C245.753 2.7991 246.59 3.65769 247.133 4.73702L247.707 4.4484C247.101 3.24614 246.169 2.29651 244.922 1.60019L244.609 2.16061ZM247.133 4.73702C247.683 5.82872 247.96 7.05127 247.96 8.41089H248.602C248.602 6.9612 248.306 5.63829 247.707 4.4484L247.133 4.73702ZM247.96 8.41089C247.96 9.77048 247.683 10.9973 247.133 12.0972L247.707 12.3842C248.306 11.1871 248.602 9.86061 248.602 8.41089H247.96ZM247.132 12.0987C246.596 13.1862 245.765 14.0562 244.629 14.7097L244.949 15.2661C246.188 14.5538 247.111 13.5924 247.708 12.3827L247.132 12.0987ZM244.63 14.7089C243.506 15.3485 242.044 15.6797 240.226 15.6797V16.3216C242.117 16.3216 243.698 15.9777 244.948 15.2669L244.63 14.7089ZM240.226 15.6797H234.452V16.3216H240.226V15.6797ZM234.773 16.0007V13.4397H234.131V16.0007H234.773ZM234.452 13.7607H240.133V13.1188H234.452V13.7607ZM240.133 13.7607C241.446 13.7607 242.536 13.5344 243.377 13.055L243.059 12.4974C242.348 12.9027 241.38 13.1188 240.133 13.1188V13.7607ZM243.377 13.055C244.206 12.5823 244.817 11.9365 245.197 11.1186L244.614 10.8484C244.295 11.536 243.781 12.0854 243.059 12.4974L243.377 13.055ZM245.196 11.1199C245.576 10.3112 245.762 9.40614 245.762 8.41089H245.12C245.12 9.32473 244.949 10.1347 244.615 10.8471L245.196 11.1199ZM245.762 8.41089C245.762 7.41571 245.576 6.514 245.195 5.71239L244.616 5.98743C244.949 6.69137 245.12 7.49698 245.12 8.41089H245.762ZM245.197 5.71485C244.816 4.89483 244.199 4.25576 243.359 3.79865L243.052 4.36237C243.781 4.75893 244.296 5.29945 244.614 5.98498L245.197 5.71485ZM243.362 3.79983C242.514 3.32965 241.414 3.10769 240.086 3.10769V3.74957C241.35 3.74957 242.331 3.96219 243.05 4.3612L243.362 3.79983ZM240.086 3.10769H235.011V3.74957H240.086V3.10769ZM234.69 3.42863V24.708H235.332V3.42863H234.69ZM235.011 24.3871H232.124V25.029H235.011V24.3871ZM251.948 24.708H251.627V25.029H251.948V24.708ZM251.948 0.867653V0.54671H251.627V0.867653H251.948ZM264.59 1.8804L264.432 2.1594L264.434 2.16061L264.59 1.8804ZM267.244 4.59271L266.958 4.73702L266.958 4.73702L267.244 4.59271ZM267.244 12.2407L266.957 12.0972L266.957 12.0987L267.244 12.2407ZM264.614 14.9879L264.772 15.2669L264.774 15.2661L264.614 14.9879ZM254.277 16.0007H253.956V16.3216H254.277V16.0007ZM254.277 13.4397V13.1188H253.956V13.4397H254.277ZM263.042 12.7762L262.883 12.4974L262.883 12.4974L263.042 12.7762ZM264.73 10.9835L264.439 10.8471L264.439 10.8484L264.73 10.9835ZM264.73 5.84991L264.439 5.98498L264.44 5.98743L264.73 5.84991ZM263.03 4.08051L262.875 4.36121L262.877 4.36237L263.03 4.08051ZM254.835 3.42863V3.10769H254.514V3.42863H254.835ZM254.835 24.708V25.029H255.156V24.708H254.835ZM252.269 24.708V0.867653H251.627V24.708H252.269ZM251.948 1.1886H260.004V0.54671H251.948V1.1886ZM260.004 1.1886C261.838 1.1886 263.307 1.52003 264.432 2.15939L264.749 1.60141C263.499 0.890441 261.91 0.54671 260.004 0.54671V1.1886ZM264.434 2.16061C265.577 2.7991 266.414 3.65769 266.958 4.73702L267.531 4.4484C266.926 3.24614 265.994 2.29651 264.747 1.60019L264.434 2.16061ZM266.958 4.73702C267.507 5.82872 267.785 7.05127 267.785 8.41089H268.427C268.427 6.9612 268.13 5.63829 267.531 4.4484L266.958 4.73702ZM267.785 8.41089C267.785 9.77048 267.507 10.9973 266.957 12.0972L267.531 12.3842C268.13 11.1871 268.427 9.86061 268.427 8.41089H267.785ZM266.957 12.0987C266.42 13.1862 265.59 14.0562 264.454 14.7097L264.774 15.2661C266.012 14.5538 266.936 13.5924 267.532 12.3827L266.957 12.0987ZM264.455 14.7089C263.33 15.3485 261.869 15.6797 260.05 15.6797V16.3216C261.942 16.3216 263.522 15.9777 264.772 15.2669L264.455 14.7089ZM260.05 15.6797H254.277V16.3216H260.05V15.6797ZM254.598 16.0007V13.4397H253.956V16.0007H254.598ZM254.277 13.7607H259.957V13.1188H254.277V13.7607ZM259.957 13.7607C261.271 13.7607 262.36 13.5344 263.201 13.055L262.883 12.4974C262.172 12.9027 261.205 13.1188 259.957 13.1188V13.7607ZM263.201 13.055C264.03 12.5823 264.642 11.9365 265.021 11.1186L264.439 10.8484C264.12 11.536 263.606 12.0854 262.883 12.4974L263.201 13.055ZM265.021 11.1199C265.4 10.3112 265.586 9.40614 265.586 8.41089H264.945C264.945 9.32473 264.774 10.1347 264.439 10.8471L265.021 11.1199ZM265.586 8.41089C265.586 7.41571 265.4 6.514 265.02 5.71239L264.44 5.98743C264.774 6.69137 264.945 7.49698 264.945 8.41089H265.586ZM265.021 5.71485C264.641 4.89483 264.023 4.25576 263.184 3.79865L262.877 4.36237C263.605 4.75893 264.121 5.29945 264.439 5.98498L265.021 5.71485ZM263.186 3.79983C262.338 3.32965 261.238 3.10769 259.911 3.10769V3.74957C261.175 3.74957 262.155 3.96219 262.875 4.3612L263.186 3.79983ZM259.911 3.10769H254.835V3.74957H259.911V3.10769ZM254.514 3.42863V24.708H255.156V3.42863H254.514ZM254.835 24.3871H251.948V25.029H254.835V24.3871Z" fill="url(#paint3_linear_7_696)" mask="url(#path-3-outside-2_7_696)"/>
<defs>
<filter id="filter0_i_7_696" x="3.40967" y="33.748" width="322.63" height="46.7848" filterUnits="userSpaceOnUse" color-interpolation-filters="sRGB">
<feFlood flood-opacity="0" result="BackgroundImageFix"/>
<feBlend mode="normal" in="SourceGraphic" in2="BackgroundImageFix" result="shape"/>
<feColorMatrix in="SourceAlpha" type="matrix" values="0 0 0 0 0 0 0 0 0 0 0 0 0 0 0 0 0 0 127 0" result="hardAlpha"/>
<feOffset dy="1.72316"/>
<feGaussianBlur stdDeviation="1.29237"/>
<feComposite in2="hardAlpha" operator="arithmetic" k2="-1" k3="1"/>
<feColorMatrix type="matrix" values="0 0 0 0 1 0 0 0 0 1 0 0 0 0 1 0 0 0 0.6 0"/>
<feBlend mode="normal" in2="shape" result="effect1_innerShadow_7_696"/>
</filter>
<filter id="filter1_i_7_696" x="60.0154" y="0.867676" width="208.09" height="25.1241" filterUnits="userSpaceOnUse" color-interpolation-filters="sRGB">
<feFlood flood-opacity="0" result="BackgroundImageFix"/>
<feBlend mode="normal" in="SourceGraphic" in2="BackgroundImageFix" result="shape"/>
<feColorMatrix in="SourceAlpha" type="matrix" values="0 0 0 0 0 0 0 0 0 0 0 0 0 0 0 0 0 0 127 0" result="hardAlpha"/>
<feOffset dy="1.28377"/>
<feGaussianBlur stdDeviation="0.96283"/>
<feComposite in2="hardAlpha" operator="arithmetic" k2="-1" k3="1"/>
<feColorMatrix type="matrix" values="0 0 0 0 1 0 0 0 0 1 0 0 0 0 1 0 0 0 0.6 0"/>
<feBlend mode="normal" in2="shape" result="effect1_innerShadow_7_696"/>
</filter>
<linearGradient id="paint0_linear_7_696" x1="26.0458" y1="35.86" x2="34.4634" y2="107.746" gradientUnits="userSpaceOnUse">
<stop stop-color="#CCE8FE"/>
<stop offset="0.241554" stop-color="#7098FF"/>
<stop offset="0.4" stop-color="#7B9EF7"/>
<stop offset="0.713254" stop-color="#CDF1FF"/>
<stop offset="1" stop-color="#4277FD"/>
</linearGradient>
<linearGradient id="paint1_linear_7_696" x1="164.5" y1="34.21" x2="164.5" y2="71.7933" gradientUnits="userSpaceOnUse">
<stop stop-color="white" stop-opacity="0.53"/>
<stop offset="1" stop-color="white" stop-opacity="0"/>
</linearGradient>
<linearGradient id="paint2_linear_7_696" x1="75.7042" y1="1.60801" x2="79.6238" y2="40.9661" gradientUnits="userSpaceOnUse">
<stop stop-color="#CCE8FE"/>
<stop offset="0.241554" stop-color="#7098FF"/>
<stop offset="0.4" stop-color="#7B9EF7"/>
<stop offset="0.713254" stop-color="#CDF1FF"/>
<stop offset="1" stop-color="#4277FD"/>
</linearGradient>
<linearGradient id="paint3_linear_7_696" x1="164.5" y1="0.708008" x2="164.5" y2="21.208" gradientUnits="userSpaceOnUse">
<stop stop-color="white" stop-opacity="0.53"/>
<stop offset="1" stop-color="white" stop-opacity="0"/>
</linearGradient>
</defs>
</svg>
